M48
; DRILL file KiCad 10.0.1 date 2026-05-04T18:49:44
; FORMAT={-:-/ absolute / metric / decimal}
; #@! TF.CreationDate,2026-05-04T18:49:44-06:00
; #@! TF.GenerationSoftware,Kicad,Pcbnew,10.0.1
; #@! TF.FileFunction,Plated,1,2,PTH
FMAT,2
METRIC
; #@! TA.AperFunction,Plated,PTH,ViaDrill
T1C0.300
; #@! TA.AperFunction,Plated,PTH,ComponentDrill
T2C0.600
; #@! TA.AperFunction,Plated,PTH,ComponentDrill
T3C0.950
; #@! TA.AperFunction,Plated,PTH,ComponentDrill
T4C1.000
%
G90
G05
T1
X118.844Y-83.067
X120.598Y-83.067
X125.953Y-91.44
X127.971Y-91.567
X132.471Y-99.567
X133.971Y-98.067
X143.971Y-75.067
X143.971Y-78.98
X146.471Y-74.567
X146.971Y-81.567
X151.471Y-75.73
X151.471Y-77.634
X152.971Y-66.067
X154.471Y-64.567
X156.018Y-79.007
X157.971Y-79.067
T3
X109.254Y-102.413
X111.754Y-102.413
X113.337Y-65.425
X114.254Y-102.413
X115.837Y-65.425
X116.754Y-102.413
X118.337Y-65.425
X120.837Y-65.425
X123.337Y-65.425
T4
X103.397Y-98.781
X103.397Y-101.321
X103.397Y-103.861
X103.397Y-106.401
X105.404Y-69.215
X105.404Y-71.755
X105.404Y-74.295
X105.404Y-76.835
X107.944Y-69.215
X107.944Y-71.755
X107.944Y-74.295
X107.944Y-76.835
X134.512Y-107.366
X137.052Y-107.366
X139.592Y-107.366
X142.132Y-107.366
X144.672Y-107.366
X147.212Y-107.366
X147.999Y-61.443
X149.752Y-107.366
X150.499Y-61.443
X152.292Y-107.366
X158.794Y-60.731
X158.916Y-104.961
X161.294Y-60.731
X161.416Y-104.961
T2
X102.996Y-85.664G85X102.396Y-85.664
G05
X102.996Y-94.304G85X102.396Y-94.304
G05
X107.426Y-85.664G85X106.326Y-85.664
G05
X107.426Y-94.304G85X106.326Y-94.304
G05
M30
