M48
; DRILL file KiCad 10.0.1 date 2026-05-05T14:26:42
; FORMAT={-:-/ absolute / metric / decimal}
; #@! TF.CreationDate,2026-05-05T14:26:42-06:00
; #@! TF.GenerationSoftware,Kicad,Pcbnew,10.0.1
; #@! TF.FileFunction,Plated,1,2,PTH
FMAT,2
METRIC
; #@! TA.AperFunction,Plated,PTH,ViaDrill
T1C0.300
; #@! TA.AperFunction,Plated,PTH,ComponentDrill
T2C0.600
; #@! TA.AperFunction,Plated,PTH,ComponentDrill
T3C0.950
; #@! TA.AperFunction,Plated,PTH,ComponentDrill
T4C1.000
%
G90
G05
T1
X108.971Y-86.567
X109.471Y-93.567
X109.971Y-90.067
X112.471Y-86.067
X113.471Y-94.067
X114.471Y-83.067
X118.844Y-83.067
X120.471Y-81.067
X120.598Y-83.067
X121.471Y-103.567
X122.471Y-91.067
X122.971Y-72.567
X122.971Y-96.567
X125.471Y-61.567
X125.953Y-91.44
X126.041Y-80.965
X127.541Y-80.965
X127.971Y-91.567
X132.438Y-92.194
X132.471Y-99.567
X133.971Y-98.067
X135.971Y-75.567
X136.471Y-80.067
X136.971Y-96.567
X141.971Y-86.567
X141.971Y-93.067
X142.471Y-58.567
X142.471Y-67.567
X142.971Y-100.067
X143.971Y-75.067
X143.971Y-78.98
X144.471Y-87.567
X146.471Y-74.567
X146.971Y-81.567
X147.971Y-96.567
X150.971Y-84.067
X151.471Y-75.73
X151.471Y-77.634
X151.471Y-92.567
X152.971Y-66.067
X154.471Y-64.567
X155.997Y-77.621
X156.018Y-79.007
X157.971Y-79.067
X160.387Y-75.045
X160.387Y-79.057
X160.471Y-76.067
X160.471Y-80.067
X160.971Y-89.567
T3
X109.254Y-102.413
X111.754Y-102.413
X113.337Y-65.425
X114.254Y-102.413
X115.837Y-65.425
X116.754Y-102.413
X118.337Y-65.425
X120.837Y-65.425
X123.337Y-65.425
T4
X103.397Y-98.781
X103.397Y-101.321
X103.397Y-103.861
X103.397Y-106.401
X105.404Y-69.215
X105.404Y-71.755
X105.404Y-74.295
X105.404Y-76.835
X107.944Y-69.215
X107.944Y-71.755
X107.944Y-74.295
X107.944Y-76.835
X134.512Y-107.366
X137.052Y-107.366
X139.592Y-107.366
X142.132Y-107.366
X144.672Y-107.366
X147.212Y-107.366
X147.999Y-61.443
X149.752Y-107.366
X150.499Y-61.443
X152.292Y-107.366
X158.794Y-60.731
X158.916Y-104.961
X161.294Y-60.731
X161.416Y-104.961
T2
X102.996Y-85.664G85X102.396Y-85.664
G05
X102.996Y-94.304G85X102.396Y-94.304
G05
X107.426Y-85.664G85X106.326Y-85.664
G05
X107.426Y-94.304G85X106.326Y-94.304
G05
M30
